<svg version="1.0" xmlns="http://www.w3.org/2000/svg"
     width="800.000000pt" height="800.000000pt" viewBox="0 0 800.000000 800.000000"
     preserveAspectRatio="xMidYMid meet">

    <g transform="translate(0.000000,800.000000) scale(0.100000,-0.100000)"
       fill="#ffff" stroke="none">
        <path d="M3435 7993 c-755 -50 -1458 -323 -2060 -801 -149 -118 -452 -421
-569 -567 -369 -463 -620 -1002 -735 -1580 -52 -261 -66 -409 -65 -720 0 -303
17 -474 70 -734 145 -703 498 -1351 1013 -1861 582 -576 1299 -924 2131 -1037
170 -23 708 -26 860 -5 406 57 708 137 1038 279 267 113 527 266 775 455 l119
91 726 -726 c822 -821 776 -782 927 -782 136 0 238 63 297 183 29 58 33 76 33
147 0 151 39 105 -782 926 l-725 727 108 145 c392 525 622 1092 711 1753 13
99 17 203 18 444 0 338 -10 451 -61 710 -259 1305 -1202 2368 -2469 2781 -419
137 -924 201 -1360 172z m500 -1697 c289 -86 511 -274 636 -540 142 -304 125
-639 -50 -941 -62 -108 -226 -272 -337 -338 -100 -59 -252 -114 -364 -132 -51
-8 -70 -13 -48 -14 78 -2 277 -43 388 -80 598 -200 1019 -745 1057 -1368 l6
-103 -1556 0 -1557 0 0 30 c0 64 22 228 42 315 134 581 592 1039 1173 1170 39
8 115 22 170 29 55 8 84 14 64 15 -20 0 -80 12 -132 25 -352 90 -621 350 -723
701 -37 129 -44 330 -16 466 81 391 381 695 772 780 128 28 352 21 475 -15z"/>
    </g>
</svg>
